<mxfile host="65bd71144e">
    <diagram id="wl5zxq8FDopw2as2-h1m" name="PÃ¡gina-1">
        <mxGraphModel dx="1060" dy="1641" grid="1" gridSize="10" guides="1" tooltips="1" connect="1" arrows="1" fold="1" page="1" pageScale="1" pageWidth="827" pageHeight="1169" math="0" shadow="0">
            <root>
                <mxCell id="0"/>
                <mxCell id="1" parent="0"/>
                <mxCell id="4" style="edgeStyle=none;html=1;" edge="1" parent="1" source="2" target="3">
                    <mxGeometry relative="1" as="geometry"/>
                </mxCell>
                <mxCell id="2" value="INICIO" style="ellipse;whiteSpace=wrap;html=1;fillColor=#FF0000;" vertex="1" parent="1">
                    <mxGeometry x="140" y="-1169" width="120" height="80" as="geometry"/>
                </mxCell>
                <mxCell id="6" style="edgeStyle=none;html=1;entryX=0.5;entryY=0;entryDx=0;entryDy=0;" edge="1" parent="1" source="3" target="5">
                    <mxGeometry relative="1" as="geometry"/>
                </mxCell>
                <mxCell id="3" value="edad" style="shape=card;whiteSpace=wrap;html=1;fillColor=#01052A;" vertex="1" parent="1">
                    <mxGeometry x="140" y="-1050" width="120" height="40" as="geometry"/>
                </mxCell>
                <mxCell id="20" style="edgeStyle=none;html=1;exitX=0.5;exitY=1;exitDx=0;exitDy=0;entryX=0.5;entryY=0;entryDx=0;entryDy=0;" edge="1" parent="1" source="5" target="7">
                    <mxGeometry relative="1" as="geometry"/>
                </mxCell>
                <mxCell id="5" value="edad" style="shape=parallelogram;perimeter=parallelogramPerimeter;whiteSpace=wrap;html=1;fixedSize=1;fillColor=#012A10;" vertex="1" parent="1">
                    <mxGeometry x="140" y="-970" width="120" height="60" as="geometry"/>
                </mxCell>
                <mxCell id="12" style="edgeStyle=none;html=1;entryX=0.5;entryY=0;entryDx=0;entryDy=0;" edge="1" parent="1" source="7">
                    <mxGeometry relative="1" as="geometry">
                        <mxPoint x="320" y="-770" as="targetPoint"/>
                        <Array as="points">
                            <mxPoint x="320" y="-820"/>
                            <mxPoint x="320" y="-790"/>
                        </Array>
                    </mxGeometry>
                </mxCell>
                <mxCell id="13" style="edgeStyle=none;html=1;exitX=0;exitY=0.5;exitDx=0;exitDy=0;entryX=0.5;entryY=0;entryDx=0;entryDy=0;" edge="1" parent="1" source="7" target="8">
                    <mxGeometry relative="1" as="geometry">
                        <mxPoint x="20" y="-820" as="targetPoint"/>
                        <Array as="points">
                            <mxPoint x="80" y="-820"/>
                            <mxPoint x="80" y="-800"/>
                        </Array>
                    </mxGeometry>
                </mxCell>
                <mxCell id="7" value="edad &amp;gt;= 18" style="rhombus;whiteSpace=wrap;html=1;fillColor=#2A0027;" vertex="1" parent="1">
                    <mxGeometry x="160" y="-860" width="80" height="80" as="geometry"/>
                </mxCell>
                <mxCell id="16" style="edgeStyle=none;html=1;entryX=0;entryY=0.5;entryDx=0;entryDy=0;" edge="1" parent="1" source="8" target="15">
                    <mxGeometry relative="1" as="geometry">
                        <Array as="points">
                            <mxPoint x="80" y="-620"/>
                        </Array>
                    </mxGeometry>
                </mxCell>
                <mxCell id="8" value="&quot;Mayor de edad&quot;" style="shape=document;whiteSpace=wrap;html=1;boundedLbl=1;fillColor=#16614F;" vertex="1" parent="1">
                    <mxGeometry x="20" y="-770" width="120" height="80" as="geometry"/>
                </mxCell>
                <mxCell id="17" style="edgeStyle=none;html=1;entryX=1.025;entryY=0.613;entryDx=0;entryDy=0;entryPerimeter=0;" edge="1" parent="1" target="15">
                    <mxGeometry relative="1" as="geometry">
                        <mxPoint x="320" y="-690" as="sourcePoint"/>
                        <Array as="points">
                            <mxPoint x="320" y="-611"/>
                        </Array>
                    </mxGeometry>
                </mxCell>
                <mxCell id="15" value="FIN" style="ellipse;whiteSpace=wrap;html=1;fillColor=#FF0000;" vertex="1" parent="1">
                    <mxGeometry x="140" y="-660" width="120" height="80" as="geometry"/>
                </mxCell>
                <mxCell id="18" value="&quot;Menor de edad&quot;" style="shape=document;whiteSpace=wrap;html=1;boundedLbl=1;fillColor=#16614F;" vertex="1" parent="1">
                    <mxGeometry x="260" y="-770" width="120" height="80" as="geometry"/>
                </mxCell>
                <mxCell id="21" value="TRUE" style="text;html=1;strokeColor=none;fillColor=none;align=center;verticalAlign=middle;whiteSpace=wrap;rounded=0;" vertex="1" parent="1">
                    <mxGeometry x="80" y="-850" width="60" height="30" as="geometry"/>
                </mxCell>
                <mxCell id="22" value="FALSE" style="text;html=1;strokeColor=none;fillColor=none;align=center;verticalAlign=middle;whiteSpace=wrap;rounded=0;" vertex="1" parent="1">
                    <mxGeometry x="250" y="-850" width="60" height="30" as="geometry"/>
                </mxCell>
            </root>
        </mxGraphModel>
    </diagram>
</mxfile>